<?xml version="1.0" standalone="no"?>
<!DOCTYPE svg PUBLIC "-//W3C//DTD SVG 20010904//EN"
 "http://www.w3.org/TR/2001/REC-SVG-20010904/DTD/svg10.dtd">
<svg version="1.0" xmlns="http://www.w3.org/2000/svg"
 width="1026.000000pt" height="1026.000000pt" viewBox="0 0 1026.000000 1026.000000"
 preserveAspectRatio="xMidYMid meet">
<metadata>
Created by potrace 1.11, written by Peter Selinger 2001-2013
</metadata>
<g transform="translate(0.000000,1026.000000) scale(0.100000,-0.100000)"
fill="#000000" stroke="none">
<path d="M4048 6295 c-3 -3 -36 -13 -74 -21 -103 -24 -167 -40 -184 -46 -8 -4
-51 -15 -95 -26 -44 -11 -179 -48 -300 -82 -242 -68 -469 -131 -585 -161 -41
-11 -111 -30 -155 -43 -44 -13 -158 -45 -254 -72 -178 -49 -230 -75 -218 -107
12 -31 53 -45 527 -176 36 -10 99 -28 140 -39 218 -61 483 -141 491 -149 5 -5
0 -35 -11 -73 -19 -64 -19 -65 0 -80 17 -14 18 -18 5 -65 -27 -98 -105 -371
-120 -419 -23 -75 -19 -97 33 -178 176 -268 495 -504 855 -633 50 -18 93 -37
94 -42 2 -5 -12 -14 -30 -21 -44 -16 -101 -72 -129 -125 -15 -30 -21 -60 -21
-107 0 -75 22 -127 75 -179 56 -55 84 -66 178 -66 75 0 90 3 125 26 69 46 107
99 123 172 13 62 -5 143 -42 191 -14 19 -26 38 -26 41 0 9 105 -4 137 -16 22
-8 22 -9 8 -50 -51 -144 22 -312 164 -377 124 -57 263 -30 358 70 64 66 94
184 73 288 -4 21 -1 25 21 28 l27 3 4 -88 c5 -113 43 -199 121 -277 245 -246
664 -111 717 231 12 75 2 165 -25 230 -17 40 -14 43 95 83 338 124 663 373
832 634 l49 76 -41 138 c-23 75 -52 171 -65 212 -13 41 -31 101 -41 133 l-17
59 -36 -7 c-20 -4 -108 -26 -196 -50 -88 -23 -275 -73 -415 -110 -140 -37
-293 -77 -340 -90 -47 -12 -157 -42 -245 -65 -88 -23 -198 -54 -245 -68 -69
-20 -113 -26 -237 -29 -166 -6 -175 -4 -558 102 -66 18 -192 52 -280 75 -88
24 -281 77 -430 117 -148 41 -301 83 -340 93 -159 42 -188 50 -192 53 -6 7 37
136 48 142 5 4 33 0 62 -9 29 -9 86 -25 127 -37 41 -11 98 -27 125 -34 28 -8
82 -23 120 -34 39 -10 214 -60 390 -111 176 -51 349 -101 385 -111 36 -10 114
-32 175 -49 152 -43 247 -60 340 -60 76 0 211 20 265 39 14 5 50 16 80 24 30
9 179 52 330 96 241 70 501 146 680 197 108 31 196 57 270 81 88 28 91 26 109
-67 8 -40 17 -60 27 -60 18 0 18 2 -5 74 -24 78 -19 91 37 106 26 7 51 17 56
21 6 5 19 9 31 9 12 0 25 4 31 9 5 5 18 11 29 13 18 4 18 5 -5 15 -56 25 -69
28 -142 39 -27 4 -48 11 -48 15 0 5 -3 8 -7 7 -9 -2 -60 9 -108 22 -16 5 -48
14 -70 20 -22 6 -47 13 -55 14 -8 2 -28 8 -43 14 -15 7 -31 11 -35 11 -4 -1
-9 0 -12 1 -3 1 -12 3 -20 6 -8 2 -40 11 -70 20 -68 20 -123 33 -175 41 -22 3
-45 9 -51 14 -12 10 -111 40 -194 59 -30 7 -60 16 -66 21 -6 5 -24 10 -40 12
-17 2 -35 6 -41 10 -5 4 -24 8 -42 9 -17 1 -31 6 -31 10 0 4 -13 8 -28 8 -15
0 -32 4 -38 9 -5 6 -25 12 -44 14 -20 2 -41 7 -48 11 -6 4 -22 10 -34 12 -13
3 -41 10 -63 15 -22 6 -53 13 -70 16 -16 3 -34 9 -40 12 -13 9 -145 48 -196
57 -9 2 -52 15 -95 28 -44 14 -135 39 -204 56 -69 17 -142 38 -163 46 -21 8
-42 12 -47 9 -5 -3 -11 -1 -14 4 -3 5 -23 12 -43 17 -21 4 -40 8 -43 9 -3 1
-25 7 -50 14 -25 6 -62 19 -83 26 -20 8 -41 14 -45 13 -4 -1 -19 2 -33 6 -14
4 -32 9 -40 10 -8 2 -23 6 -34 10 -54 21 -123 38 -160 41 -5 0 -15 4 -21 7
-12 8 -69 20 -96 22 -9 0 -14 4 -12 8 6 9 -10 11 -18 3z"/>
<path d="M8016 5163 c-3 -23 -17 -49 -34 -65 -48 -44 -51 -99 -9 -145 l20 -23
-30 -42 c-57 -81 -57 -83 -63 -268 -5 -161 -8 -178 -29 -213 -17 -28 -21 -41
-13 -49 14 -14 322 -12 335 1 6 6 2 26 -11 53 -17 36 -22 72 -28 215 -7 181
-10 192 -76 284 -9 13 -6 23 15 51 36 46 34 76 -7 124 -19 22 -38 57 -41 77
-9 47 -21 47 -29 0z"/>
<path d="M4199 3320 c-125 -22 -222 -112 -268 -250 -20 -63 -21 -81 -19 -385
l3 -320 272 -3 272 -2 3 -133 3 -132 307 -3 308 -2 2 -253 3 -252 575 0 575 0
3 535 c2 353 -1 557 -8 600 -14 82 -75 211 -132 274 -56 65 -174 141 -257 167
-171 54 -346 29 -502 -73 l-63 -40 -26 33 c-104 138 -218 200 -367 200 -92 0
-220 -48 -268 -101 -25 -28 -47 -25 -70 11 -26 40 -119 107 -164 118 -59 15
-133 20 -182 11z"/>
</g>
</svg>
